# Blender 3.1.0
# www.blender.org
mtllib bullet.mtl
o Bullet
v -0.014161 -0.014161 0.014161
v -0.014161 0.014161 0.014161
v -0.014161 -0.014161 -0.014161
v -0.014161 0.014161 -0.014161
v 0.014161 -0.014161 0.014161
v 0.014161 0.014161 0.014161
v 0.014161 -0.014161 -0.014161
v 0.014161 0.014161 -0.014161
v -0.027852 -0.014161 0.014161
v -0.027852 0.014161 0.014161
v -0.027852 0.014161 -0.014161
v -0.027852 -0.014161 -0.014161
v -0.014161 -0.014161 -0.027852
v -0.014161 0.014161 -0.027852
v 0.014161 0.014161 -0.027852
v 0.014161 -0.014161 -0.027852
v 0.027852 -0.014161 -0.014161
v 0.027852 0.014161 -0.014161
v 0.027852 0.014161 0.014161
v 0.027852 -0.014161 0.014161
v 0.014161 -0.014161 0.027852
v 0.014161 0.014161 0.027852
v -0.014161 0.014161 0.027852
v -0.014161 -0.014161 0.027852
v -0.014161 -0.027852 -0.014161
v 0.014161 -0.027852 -0.014161
v 0.014161 -0.027852 0.014161
v -0.014161 -0.027852 0.014161
v 0.014161 0.027852 -0.014161
v -0.014161 0.027852 -0.014161
v -0.014161 0.027852 0.014161
v 0.014161 0.027852 0.014161
vn -1.0000 -0.0000 -0.0000
vn -0.0000 -0.0000 1.0000
vn -0.0000 1.0000 -0.0000
vn -0.0000 -0.0000 -1.0000
vn -0.0000 -1.0000 -0.0000
vn 1.0000 -0.0000 -0.0000
vt 0.672247 0.232468
vt 0.672247 0.232468
vt 0.672247 0.232468
vt 0.672247 0.232468
vt 0.672247 0.232468
vt 0.672247 0.232468
vt 0.672247 0.232468
vt 0.672247 0.232468
vt 0.672247 0.232468
vt 0.672247 0.232468
vt 0.672247 0.232468
vt 0.672247 0.232468
vt 0.672247 0.232468
vt 0.672247 0.232468
vt 0.672247 0.232468
vt 0.672247 0.232468
vt 0.672247 0.232468
vt 0.672247 0.232468
vt 0.672247 0.232468
vt 0.672247 0.232468
vt 0.672247 0.232468
vt 0.672247 0.232468
vt 0.672247 0.232468
vt 0.672247 0.232468
vt 0.672247 0.232468
vt 0.672247 0.232468
vt 0.672247 0.232468
vt 0.672247 0.232468
vt 0.672247 0.232468
vt 0.672247 0.232468
vt 0.672247 0.232468
vt 0.672247 0.232468
s 0
usemtl Material.001
f 9/9/1 10/10/1 11/11/1 12/12/1
f 2/2/2 10/10/2 9/9/2 1/1/2
f 4/4/3 11/11/3 10/10/3 2/2/3
f 3/3/4 12/12/4 11/11/4 4/4/4
f 1/1/5 9/9/5 12/12/5 3/3/5
f 13/13/4 14/14/4 15/15/4 16/16/4
f 4/4/1 14/14/1 13/13/1 3/3/1
f 8/8/3 15/15/3 14/14/3 4/4/3
f 7/7/6 16/16/6 15/15/6 8/8/6
f 3/3/5 13/13/5 16/16/5 7/7/5
f 17/17/6 18/18/6 19/19/6 20/20/6
f 8/8/4 18/18/4 17/17/4 7/7/4
f 6/6/3 19/19/3 18/18/3 8/8/3
f 5/5/2 20/20/2 19/19/2 6/6/2
f 7/7/5 17/17/5 20/20/5 5/5/5
f 21/21/2 22/22/2 23/23/2 24/24/2
f 6/6/6 22/22/6 21/21/6 5/5/6
f 2/2/3 23/23/3 22/22/3 6/6/3
f 1/1/1 24/24/1 23/23/1 2/2/1
f 5/5/5 21/21/5 24/24/5 1/1/5
f 25/25/5 26/26/5 27/27/5 28/28/5
f 7/7/4 26/26/4 25/25/4 3/3/4
f 5/5/6 27/27/6 26/26/6 7/7/6
f 1/1/2 28/28/2 27/27/2 5/5/2
f 3/3/1 25/25/1 28/28/1 1/1/1
f 29/29/3 30/30/3 31/31/3 32/32/3
f 4/4/4 30/30/4 29/29/4 8/8/4
f 2/2/1 31/31/1 30/30/1 4/4/1
f 6/6/2 32/32/2 31/31/2 2/2/2
f 8/8/6 29/29/6 32/32/6 6/6/6
