# Blender 3.1.0
# www.blender.org
mtllib tower2.mtl
o barrel.001
v 0.160775 0.374904 0.432405
v 0.160775 0.440376 0.432405
v 0.193699 0.368090 -0.108672
v 0.167590 0.368090 0.164869
v 0.167590 0.447190 0.164869
v 0.193699 0.473299 -0.108672
v 0.193699 0.368090 0.164869
v 0.193699 0.473299 0.164869
v 0.167590 0.447190 0.361404
v 0.167590 0.368090 0.361404
v 0.185218 0.464818 0.361404
v 0.185218 0.464818 0.432405
v 0.185218 0.350462 0.432405
v 0.185218 0.350462 0.361404
v 0.160775 0.440376 0.389384
v 0.160775 0.374904 0.389384
v 0.095304 0.374904 0.432405
v 0.095304 0.440376 0.432405
v 0.062381 0.368090 -0.108672
v 0.088490 0.368090 0.164869
v 0.088490 0.447190 0.164869
v 0.062381 0.473299 -0.108672
v 0.062381 0.368090 0.164869
v 0.062381 0.473299 0.164869
v 0.088490 0.447190 0.361404
v 0.088490 0.368090 0.361404
v 0.070862 0.464818 0.361404
v 0.070862 0.464818 0.432405
v 0.070862 0.350462 0.432405
v 0.070862 0.350462 0.361404
v 0.095304 0.440376 0.389384
v 0.095304 0.374904 0.389384
v -0.160775 0.374904 0.432405
v -0.160775 0.440376 0.432405
v -0.193699 0.368090 -0.108672
v -0.167590 0.368090 0.164869
v -0.167590 0.447190 0.164869
v -0.193699 0.473299 -0.108672
v -0.193699 0.368090 0.164869
v -0.193699 0.473299 0.164869
v -0.167590 0.447190 0.361404
v -0.167590 0.368090 0.361404
v -0.185218 0.464818 0.361404
v -0.185218 0.464818 0.432405
v -0.185218 0.350462 0.432405
v -0.185218 0.350462 0.361404
v -0.160775 0.440376 0.389384
v -0.160775 0.374904 0.389384
v -0.095304 0.374904 0.432405
v -0.095304 0.440376 0.432405
v -0.062381 0.368090 -0.108672
v -0.088490 0.368090 0.164869
v -0.088490 0.447190 0.164869
v -0.062381 0.473299 -0.108672
v -0.062381 0.368090 0.164869
v -0.062381 0.473299 0.164869
v -0.088490 0.447190 0.361404
v -0.088490 0.368090 0.361404
v -0.070862 0.464818 0.361404
v -0.070862 0.464818 0.432405
v -0.070862 0.350462 0.432405
v -0.070862 0.350462 0.361404
v -0.095304 0.440376 0.389384
v -0.095304 0.374904 0.389384
vn -0.0000 -0.0000 1.0000
vn -1.0000 -0.0000 -0.0000
vn -0.0000 -1.0000 -0.0000
vn 1.0000 -0.0000 -0.0000
vn -0.0000 1.0000 -0.0000
vn -0.0000 -0.0000 -1.0000
vt 0.817170 0.814118
vt 0.821874 0.814118
vt 0.816680 0.775240
vt 0.816680 0.794895
vt 0.822364 0.794895
vt 0.824240 0.775240
vt 0.816680 0.794895
vt 0.824240 0.794895
vt 0.822364 0.809016
vt 0.816680 0.809016
vt 0.823630 0.809016
vt 0.823630 0.814118
vt 0.815413 0.814118
vt 0.815413 0.809016
vt 0.947011 0.939599
vt 0.821874 0.803773
vt 0.817170 0.803773
vt 0.947011 0.939599
vt 0.817170 0.814118
vt 0.821874 0.814118
vt 0.816680 0.775240
vt 0.816680 0.794895
vt 0.822364 0.794895
vt 0.824240 0.775240
vt 0.816680 0.794895
vt 0.824240 0.794895
vt 0.822364 0.809016
vt 0.816680 0.809016
vt 0.823630 0.809016
vt 0.823630 0.814118
vt 0.815413 0.814118
vt 0.815413 0.809016
vt 0.947011 0.939599
vt 0.821874 0.803773
vt 0.947011 0.939599
vt 0.817170 0.803773
vt 0.817170 0.814118
vt 0.821874 0.814118
vt 0.816680 0.775240
vt 0.816680 0.794895
vt 0.822364 0.794895
vt 0.824240 0.775240
vt 0.816680 0.794895
vt 0.824240 0.794895
vt 0.822364 0.809016
vt 0.816680 0.809016
vt 0.823630 0.809016
vt 0.823630 0.814118
vt 0.815413 0.814118
vt 0.815413 0.809016
vt 0.947011 0.939599
vt 0.821874 0.803773
vt 0.817170 0.803773
vt 0.947011 0.939599
vt 0.817170 0.814118
vt 0.821874 0.814118
vt 0.816680 0.775240
vt 0.816680 0.794895
vt 0.822364 0.794895
vt 0.824240 0.775240
vt 0.816680 0.794895
vt 0.824240 0.794895
vt 0.822364 0.809016
vt 0.816680 0.809016
vt 0.823630 0.809016
vt 0.823630 0.814118
vt 0.815413 0.814118
vt 0.815413 0.809016
vt 0.947011 0.939599
vt 0.821874 0.803773
vt 0.947011 0.939599
vt 0.817170 0.803773
s 0
usemtl Material.001
f 2/2/1 1/1/1 13/13/1 12/12/1
f 8/8/1 24/26/1 21/23/1 5/5/1
f 12/12/1 28/30/1 18/20/1 2/2/1
f 19/21/2 23/25/2 24/26/2 22/24/2
f 10/10/3 26/28/3 20/22/3 4/4/3
f 13/13/3 29/31/3 30/32/3 14/14/3
f 4/4/4 5/5/4 9/9/4 10/10/4
f 14/14/4 11/11/4 12/12/4 13/13/4
f 16/17/5 32/36/5 17/19/5 1/1/5
f 10/10/6 9/9/6 11/11/6 14/14/6
f 1/1/2 2/2/2 15/16/2 16/17/2
f 32/35/1 16/18/1 15/15/1 31/33/1
f 25/27/6 27/29/6 11/11/6 9/9/6
f 17/19/1 29/31/1 13/13/1 1/1/1
f 27/29/5 28/30/5 12/12/5 11/11/5
f 21/23/5 25/27/5 9/9/5 5/5/5
f 22/24/5 24/26/5 8/8/5 6/6/5
f 18/20/3 31/34/3 15/16/3 2/2/3
f 19/21/6 22/24/6 6/6/6 3/3/6
f 8/8/1 5/5/1 4/4/1 7/7/1
f 18/20/1 28/30/1 29/31/1 17/19/1
f 6/6/4 8/8/4 7/7/4 3/3/4
f 20/22/2 26/28/2 25/27/2 21/23/2
f 30/32/2 29/31/2 28/30/2 27/29/2
f 26/28/6 30/32/6 27/29/6 25/27/6
f 17/19/4 32/36/4 31/34/4 18/20/4
f 24/26/1 23/25/1 20/22/1 21/23/1
f 14/14/6 30/32/6 26/28/6 10/10/6
f 19/21/3 3/3/3 7/7/3 23/25/3
f 34/38/1 44/48/1 45/49/1 33/37/1
f 40/44/1 37/41/1 53/59/1 56/62/1
f 44/48/1 34/38/1 50/56/1 60/66/1
f 51/57/4 54/60/4 56/62/4 55/61/4
f 42/46/3 36/40/3 52/58/3 58/64/3
f 45/49/3 46/50/3 62/68/3 61/67/3
f 36/40/2 42/46/2 41/45/2 37/41/2
f 46/50/2 45/49/2 44/48/2 43/47/2
f 48/53/5 33/37/5 49/55/5 64/72/5
f 42/46/6 46/50/6 43/47/6 41/45/6
f 33/37/4 48/53/4 47/52/4 34/38/4
f 64/71/1 63/69/1 47/51/1 48/54/1
f 57/63/6 41/45/6 43/47/6 59/65/6
f 49/55/1 33/37/1 45/49/1 61/67/1
f 59/65/5 43/47/5 44/48/5 60/66/5
f 53/59/5 37/41/5 41/45/5 57/63/5
f 54/60/5 38/42/5 40/44/5 56/62/5
f 50/56/3 34/38/3 47/52/3 63/70/3
f 51/57/6 35/39/6 38/42/6 54/60/6
f 40/44/1 39/43/1 36/40/1 37/41/1
f 50/56/1 49/55/1 61/67/1 60/66/1
f 38/42/2 35/39/2 39/43/2 40/44/2
f 52/58/4 53/59/4 57/63/4 58/64/4
f 62/68/4 59/65/4 60/66/4 61/67/4
f 58/64/6 57/63/6 59/65/6 62/68/6
f 49/55/2 50/56/2 63/70/2 64/72/2
f 56/62/1 53/59/1 52/58/1 55/61/1
f 46/50/6 42/46/6 58/64/6 62/68/6
f 51/57/3 55/61/3 39/43/3 35/39/3
o base.001
v 0.177533 0.186080 -0.174298
v 0.229896 0.000000 -0.174298
v 0.177533 0.186081 0.158020
v 0.229896 0.000000 0.158020
v 0.144898 0.300121 -0.078472
v 0.144898 0.300121 -0.174298
v 0.307581 0.000000 -0.062251
v 0.307581 0.000000 0.050945
v 0.194384 0.000000 -0.062251
v 0.194384 0.000000 0.050945
v 0.192083 0.190313 0.050945
v 0.139705 0.190313 0.050945
v 0.192083 0.190313 -0.062251
v 0.139705 0.190313 -0.062251
v 0.000000 0.186081 0.158020
v 0.000000 0.000000 0.158020
v 0.000000 0.186080 -0.174298
v 0.000000 0.000000 -0.174298
v 0.000000 0.300121 -0.078472
v 0.000000 0.300121 -0.174298
v 0.118056 0.000000 0.370816
v 0.118056 0.165762 0.190564
v 0.118056 0.000000 -0.045549
v 0.118056 0.165762 -0.045549
v 0.000000 0.000000 -0.045549
v 0.000000 0.165762 -0.045549
v 0.000000 0.000000 0.370816
v 0.000000 0.165762 0.190564
v 0.144567 0.000000 -0.241749
v 0.144567 0.000000 -0.128553
v 0.000000 0.000000 -0.241749
v 0.000000 0.000000 -0.128553
v 0.144567 0.253130 -0.076980
v 0.000000 0.253130 -0.076980
v 0.144567 0.253130 -0.190176
v 0.000000 0.253130 -0.190176
v -0.177533 0.186080 -0.174298
v -0.229896 0.000000 -0.174298
v -0.177533 0.186081 0.158020
v -0.229896 0.000000 0.158020
v -0.144898 0.300121 -0.078472
v -0.144898 0.300121 -0.174298
v -0.307581 0.000000 -0.062251
v -0.307581 0.000000 0.050945
v -0.194384 0.000000 -0.062251
v -0.194384 0.000000 0.050945
v -0.192083 0.190313 0.050945
v -0.139705 0.190313 0.050945
v -0.192083 0.190313 -0.062251
v -0.139705 0.190313 -0.062251
v -0.118056 0.000000 0.370816
v -0.118056 0.165762 0.190564
v -0.118056 0.000000 -0.045549
v -0.118056 0.165762 -0.045549
v -0.144567 0.000000 -0.241749
v -0.144567 0.000000 -0.128553
v -0.144567 0.253130 -0.076980
v -0.144567 0.253130 -0.190176
vn -0.0000 0.9007 0.4344
vn -0.0000 -1.0000 -0.0000
vn 0.9626 0.2709 -0.0000
vn 0.9620 0.2732 -0.0009
vn -0.0000 -0.0000 -1.0000
vn 0.9608 0.2774 0.0010
vn 0.9614 0.2751 -0.0000
vn -0.0000 1.0000 -0.0000
vn 0.8549 0.5188 -0.0000
vn -0.0000 -0.0000 1.0000
vn 1.0000 -0.0000 -0.0000
vn -0.0000 0.7361 0.6769
vn -0.0000 -0.1996 0.9799
vn -0.0000 0.1996 -0.9799
vn -0.9626 0.2709 -0.0000
vn -0.9620 0.2732 -0.0009
vn -0.9608 0.2774 0.0010
vn -0.9614 0.2751 -0.0000
vn -0.8549 0.5188 -0.0000
vn -1.0000 -0.0000 -0.0000
vt 0.847954 0.792830
vt 0.857769 0.757951
vt 0.847954 0.792830
vt 0.857769 0.757951
vt 0.841837 0.814205
vt 0.841837 0.814205
vt 0.872329 0.757951
vt 0.872329 0.757951
vt 0.851112 0.757951
vt 0.851112 0.757951
vt 0.850681 0.793623
vt 0.840864 0.793623
vt 0.850681 0.793623
vt 0.840864 0.793623
vt 0.814678 0.792830
vt 0.814678 0.757951
vt 0.814678 0.792830
vt 0.814678 0.757951
vt 0.814678 0.814205
vt 0.814678 0.814205
vt 0.836806 0.757952
vt 0.836806 0.789021
vt 0.836806 0.757951
vt 0.836806 0.789021
vt 0.814678 0.757951
vt 0.814678 0.789021
vt 0.814678 0.757952
vt 0.814678 0.789021
vt 0.841775 0.757951
vt 0.841775 0.757951
vt 0.814678 0.757951
vt 0.814678 0.757951
vt 0.841775 0.805397
vt 0.814678 0.805397
vt 0.841775 0.805397
vt 0.814678 0.805397
vt 0.781402 0.792830
vt 0.771587 0.757951
vt 0.781402 0.792830
vt 0.771587 0.757951
vt 0.787519 0.814205
vt 0.787519 0.814205
vt 0.757027 0.757951
vt 0.757027 0.757951
vt 0.778244 0.757951
vt 0.778244 0.757951
vt 0.778675 0.793623
vt 0.788492 0.793623
vt 0.778675 0.793623
vt 0.788492 0.793623
vt 0.792550 0.757952
vt 0.792550 0.789021
vt 0.792550 0.757951
vt 0.792550 0.789021
vt 0.787581 0.757951
vt 0.787581 0.757951
vt 0.787581 0.805397
vt 0.787581 0.805397
s 0
usemtl Material.001
f 79/87/7 67/75/7 69/77/7 83/91/7
f 82/90/8 66/74/8 68/76/8 80/88/8
f 66/74/9 65/73/9 67/75/10 68/76/9
f 82/90/11 81/89/11 65/73/11 66/74/11
f 67/75/12 65/73/13 70/78/13 69/77/13
f 71/79/8 72/80/8 74/82/8 73/81/8
f 77/85/14 78/86/14 76/84/14 75/83/14
f 71/79/11 73/81/11 78/86/11 77/85/11
f 72/80/15 71/79/15 77/85/15 75/83/15
f 74/82/16 72/80/16 75/83/16 76/84/16
f 65/73/11 81/89/11 84/92/11 70/78/11
f 70/78/14 84/92/14 83/91/14 69/77/14
f 68/76/16 67/75/16 79/87/16 80/88/16
f 89/97/11 90/98/11 88/96/11 87/95/11
f 87/95/17 88/96/17 86/94/17 85/93/17
f 89/97/8 87/95/8 85/93/8 91/99/8
f 88/96/14 90/98/14 92/100/14 86/94/14
f 85/93/18 86/94/18 92/100/18 91/99/18
f 93/101/8 94/102/8 96/104/8 95/103/8
f 99/107/14 100/108/14 98/106/14 97/105/14
f 94/102/19 97/105/19 98/106/19 96/104/19
f 95/103/20 100/108/20 99/107/20 93/101/20
f 93/101/17 99/107/17 97/105/17 94/102/17
f 79/87/7 83/91/7 105/113/7 103/111/7
f 82/90/8 80/88/8 104/112/8 102/110/8
f 102/110/21 104/112/21 103/111/22 101/109/21
f 82/90/11 102/110/11 101/109/11 81/89/11
f 103/111/23 105/113/24 106/114/24 101/109/24
f 107/115/8 109/117/8 110/118/8 108/116/8
f 113/121/14 111/119/14 112/120/14 114/122/14
f 107/115/11 113/121/11 114/122/11 109/117/11
f 108/116/25 111/119/25 113/121/25 107/115/25
f 110/118/16 112/120/16 111/119/16 108/116/16
f 101/109/11 106/114/11 84/92/11 81/89/11
f 106/114/14 105/113/14 83/91/14 84/92/14
f 104/112/16 80/88/16 79/87/16 103/111/16
f 89/97/11 117/125/11 118/126/11 90/98/11
f 117/125/26 115/123/26 116/124/26 118/126/26
f 89/97/8 91/99/8 115/123/8 117/125/8
f 118/126/14 116/124/14 92/100/14 90/98/14
f 115/123/18 91/99/18 92/100/18 116/124/18
f 119/127/8 95/103/8 96/104/8 120/128/8
f 122/130/14 121/129/14 98/106/14 100/108/14
f 120/128/19 96/104/19 98/106/19 121/129/19
f 95/103/20 119/127/20 122/130/20 100/108/20
f 119/127/26 120/128/26 121/129/26 122/130/26
o tower.001
v -0.097439 0.401777 0.097439
v -0.086187 0.401777 -0.097439
v 0.097439 0.401777 0.097439
v -0.097439 0.057294 -0.032480
v -0.097439 0.057294 0.032480
v -0.097439 0.488174 0.032480
v 0.097439 0.057294 0.032480
v 0.097439 0.057294 -0.032480
v 0.086187 0.401777 -0.097439
v -0.097439 0.443689 0.032480
v -0.086187 0.443689 -0.097439
v -0.086187 0.476923 -0.097439
v 0.086187 0.476923 -0.097439
v 0.086187 0.443689 -0.097439
v 0.097439 0.443689 0.032480
v 0.097439 0.488174 0.032480
v -0.097439 0.313869 0.097439
v -0.086187 0.325121 -0.097439
v 0.086187 0.325121 -0.097439
v 0.097439 0.313869 0.097439
v 0.097439 0.313869 -0.032480
v 0.097439 0.278499 -0.032480
v 0.097439 0.313869 0.032480
v 0.097439 0.278499 0.032480
v -0.097439 0.313869 0.032480
v -0.097439 0.278499 0.032480
v -0.097439 0.313869 -0.032480
v -0.097439 0.278499 -0.032480
v -0.054264 0.278499 0.061671
v -0.054264 0.313869 0.061671
v -0.054264 0.313869 -0.061671
v -0.054264 0.278499 -0.061671
v 0.054264 0.313869 -0.061671
v 0.054264 0.278499 -0.061671
v 0.054264 0.313869 0.061671
v 0.054264 0.278499 0.061671
v 0.054264 0.313869 -0.032480
v 0.054264 0.278499 -0.032480
v 0.054264 0.313869 0.032480
v 0.054264 0.278499 0.032480
v -0.054264 0.313869 0.032480
v -0.054264 0.278499 0.032480
v -0.054264 0.313869 -0.032480
v -0.054264 0.278499 -0.032480
v -0.044305 0.057294 0.097439
v -0.097439 0.057294 0.044305
v -0.081876 0.057294 0.081876
v -0.097439 0.057294 -0.044305
v -0.044305 0.057294 -0.097439
v -0.081876 0.057294 -0.081876
v 0.097439 0.057294 0.044305
v 0.044305 0.057294 0.097439
v 0.081876 0.057294 0.081876
v 0.044305 0.057294 -0.097439
v 0.097439 0.057294 -0.044305
v 0.081876 0.057294 -0.081876
v -0.097439 0.278499 0.044305
v -0.044305 0.278499 0.097439
v -0.056522 0.278499 0.063542
v -0.081876 0.278499 0.081876
v -0.044305 0.278499 -0.097439
v -0.097439 0.278499 -0.044305
v -0.056522 0.278499 -0.063542
v -0.081876 0.278499 -0.081876
v 0.097439 0.278499 -0.044305
v 0.044305 0.278499 -0.097439
v 0.056522 0.278499 -0.063542
v 0.081876 0.278499 -0.081876
v 0.044305 0.278499 0.097439
v 0.097439 0.278499 0.044305
v 0.056522 0.278499 0.063542
v 0.081876 0.278499 0.081876
v -0.097439 0.401777 -0.097439
v -0.097439 0.313869 -0.097439
v 0.097439 0.313869 -0.097439
v 0.097439 0.401777 -0.097439
v 0.097439 0.443689 -0.097439
v -0.097439 0.443689 -0.097439
v -0.097439 0.488174 -0.097439
v 0.097439 0.488174 -0.097439
v -0.086187 0.401777 -0.129680
v 0.086187 0.401777 -0.129680
v -0.086187 0.325121 -0.129680
v 0.086187 0.325121 -0.129680
v 0.086187 0.443689 -0.129680
v -0.086187 0.443689 -0.129680
v -0.086187 0.476923 -0.129680
v 0.086187 0.476923 -0.129680
vn -1.0000 -0.0000 -0.0000
vn 1.0000 -0.0000 -0.0000
vn -0.0000 -0.0000 1.0000
vn -0.0000 0.6010 0.7993
vn -0.0000 -1.0000 -0.0000
vn -0.0000 1.0000 -0.0000
vn -0.0000 -0.0000 -1.0000
vn -0.3827 -0.0000 0.9239
vn -0.9239 -0.0000 0.3827
vn 0.3827 -0.0000 -0.9239
vn 0.9239 -0.0000 -0.3827
vn 0.9239 -0.0000 0.3827
vn 0.3827 -0.0000 0.9239
vn -0.9239 -0.0000 -0.3827
vn -0.3827 -0.0000 -0.9239
vt 0.795940 0.823795
vt 0.798054 0.823795
vt 0.832560 0.823795
vt 0.795940 0.759063
vt 0.795940 0.759063
vt 0.804299 0.840031
vt 0.795940 0.823795
vt 0.832560 0.759063
vt 0.832560 0.759063
vt 0.830445 0.823795
vt 0.795940 0.831671
vt 0.799247 0.831671
vt 0.804027 0.837916
vt 0.824472 0.837916
vt 0.829253 0.831671
vt 0.832560 0.831671
vt 0.832560 0.823795
vt 0.824200 0.840031
vt 0.795940 0.807276
vt 0.798054 0.809391
vt 0.830446 0.809391
vt 0.832560 0.807276
vt 0.832560 0.807276
vt 0.832560 0.800630
vt 0.832560 0.807276
vt 0.832560 0.800630
vt 0.795940 0.807276
vt 0.795940 0.800630
vt 0.795940 0.807276
vt 0.795940 0.800630
vt 0.804053 0.800630
vt 0.804053 0.807276
vt 0.804053 0.807276
vt 0.804053 0.800630
vt 0.824447 0.807276
vt 0.824447 0.800630
vt 0.824447 0.807276
vt 0.824447 0.800630
vt 0.824447 0.807276
vt 0.824447 0.800630
vt 0.824447 0.807276
vt 0.824447 0.800630
vt 0.804053 0.807276
vt 0.804053 0.800630
vt 0.804053 0.807276
vt 0.804053 0.800630
vt 0.805924 0.759063
vt 0.795940 0.759063
vt 0.796915 0.759063
vt 0.795940 0.759063
vt 0.805924 0.759063
vt 0.796915 0.759063
vt 0.832560 0.759063
vt 0.822575 0.759063
vt 0.831585 0.759063
vt 0.822575 0.759063
vt 0.832560 0.759063
vt 0.831585 0.759063
vt 0.795940 0.800630
vt 0.795940 0.800630
vt 0.805924 0.800630
vt 0.803629 0.800630
vt 0.795940 0.800630
vt 0.805924 0.800630
vt 0.795940 0.800630
vt 0.803629 0.800630
vt 0.798864 0.800630
vt 0.795940 0.800630
vt 0.832560 0.800630
vt 0.832560 0.800630
vt 0.822575 0.800630
vt 0.824871 0.800630
vt 0.832560 0.800630
vt 0.822575 0.800630
vt 0.832560 0.800630
vt 0.824871 0.800630
vt 0.829635 0.800630
vt 0.832560 0.800630
vt 0.795940 0.823795
vt 0.795940 0.807276
vt 0.832560 0.807276
vt 0.832560 0.823795
vt 0.832560 0.831671
vt 0.795940 0.831671
vt 0.804299 0.840031
vt 0.824200 0.840031
vt 0.798054 0.823795
vt 0.830445 0.823795
vt 0.798054 0.809391
vt 0.830446 0.809391
vt 0.829253 0.831671
vt 0.799247 0.831671
vt 0.804027 0.837916
vt 0.824472 0.837916
s 0
usemtl Material.001
f 149/159/27 195/209/27 196/210/27
f 135/144/28 136/145/28 207/221/28 210/224/28
f 145/155/28 138/147/28 125/133/28 142/152/28
f 142/152/29 125/133/29 123/131/29 139/149/29
f 168/178/27 179/189/27 148/158/27 127/135/27
f 138/147/30 128/137/30 123/131/30 125/133/30
f 138/147/27 198/212/27 199/213/27 137/146/27
f 126/134/27 150/160/27 184/195/27 170/180/27
f 126/134/31 130/139/31 129/138/31 127/135/31
f 197/211/28 198/212/28 143/153/28
f 143/153/28 198/212/28 138/147/28 145/155/28
f 139/149/27 123/131/27 128/137/27 147/157/27
f 147/157/27 128/137/27 195/209/27 149/159/27
f 124/132/27 133/142/27 208/222/27 203/217/27
f 202/216/32 201/215/32 128/136/32 138/148/32
f 128/136/27 201/215/27 200/214/27 132/141/27
f 202/216/28 138/148/28 137/146/28 199/213/28
f 195/209/28 128/137/28 132/141/28 200/214/28
f 127/135/27 148/158/27 150/160/27 126/134/27
f 146/156/32 144/154/32 160/170/32 162/172/32
f 171/181/33 183/194/33 188/201/33 176/186/33
f 145/155/31 142/152/31 157/167/31 161/171/31
f 130/139/28 144/154/28 146/156/28 129/138/28
f 139/149/31 147/157/31 163/173/31 152/162/31
f 148/158/32 179/189/32 181/192/32 151/161/32 164/174/32
f 127/135/31 129/138/31 173/183/31 175/185/31 174/184/31 167/177/31 169/179/31 168/178/31
f 181/192/32 180/191/32 191/204/32 193/206/32 158/168/32 151/161/32
f 177/187/28 187/199/28 144/154/28 130/139/28
f 142/152/31 139/149/31 152/162/31 157/167/31
f 170/180/31 172/182/31 171/181/31 176/186/31 178/188/31 177/187/31 130/139/31 126/134/31
f 147/157/31 149/159/31 165/175/31 163/173/31
f 129/138/28 146/156/28 192/205/28 173/183/28
f 189/202/32 188/201/32 183/194/32 185/196/32 154/164/32 156/166/32
f 164/174/27 163/173/27 165/175/27 166/176/27
f 151/161/27 152/162/27 163/173/27 164/174/27
f 160/170/28 159/169/28 161/171/28 162/172/28
f 156/166/28 155/165/28 159/169/28 160/170/28
f 158/168/29 157/167/29 152/162/29 151/161/29
f 162/172/28 161/171/28 157/167/28 158/168/28
f 154/164/33 153/163/33 155/165/33 156/166/33
f 166/176/27 165/175/27 153/163/27 154/164/27
f 185/196/32 184/195/32 150/160/32 166/176/32 154/164/32
f 143/153/31 145/155/31 161/171/31 159/169/31
f 196/210/31 197/211/31 155/165/31 153/163/31
f 193/206/32 192/205/32 146/156/32 162/172/32 158/168/32
f 144/154/32 187/199/32 189/202/32 156/166/32 160/170/32
f 197/211/31 143/153/31 159/169/31 155/165/31
f 150/160/32 148/158/32 164/174/32 166/176/32
f 149/159/31 196/210/31 153/163/31 165/175/31
f 179/189/32 182/193/32 181/192/32
f 182/193/32 180/190/32 181/192/32
f 183/194/32 186/197/32 185/196/32
f 186/197/32 184/195/32 185/196/32
f 187/199/32 190/203/32 189/202/32
f 190/203/32 188/200/32 189/202/32
f 191/204/32 194/207/32 193/206/32
f 194/207/32 192/205/32 193/206/32
f 167/177/34 180/191/34 182/193/34 169/179/34
f 169/179/35 182/193/35 179/189/35 168/178/35
f 176/186/36 188/201/36 190/203/36 178/188/36
f 178/188/37 190/203/37 187/199/37 177/187/37
f 173/183/38 192/205/38 194/208/38 175/185/38
f 175/185/39 194/208/39 191/204/39 174/184/39
f 170/180/40 184/195/40 186/198/40 172/182/40
f 172/182/41 186/198/41 183/194/41 171/181/41
f 174/184/29 191/204/29 180/191/29 167/177/29
f 124/132/33 140/150/33 196/210/33 195/209/33
f 140/150/33 141/151/33 197/211/33 196/210/33
f 131/140/33 136/145/33 199/213/33 198/212/33
f 134/143/33 133/142/33 200/214/33 201/215/33
f 135/144/33 134/143/33 201/215/33 202/216/33
f 136/145/33 135/144/33 202/216/33 199/213/33
f 141/151/33 131/140/33 198/212/33 197/211/33
f 133/142/33 124/132/33 195/209/33 200/214/33
f 205/219/33 203/217/33 204/218/33 206/220/33
f 204/218/33 203/217/33 208/222/33 209/223/33 210/224/33 207/221/33
f 133/142/27 134/143/27 209/223/27 208/222/27
f 141/151/31 140/150/31 205/219/31 206/220/31
f 131/140/28 141/151/28 206/220/28 204/218/28
f 134/143/32 135/144/32 210/224/32 209/223/32
f 136/145/28 131/140/28 204/218/28 207/221/28
f 140/150/27 124/132/27 203/217/27 205/219/27
