# Blender 3.1.0
# www.blender.org
mtllib tower1.mtl
o barrel
v 0.032736 0.374905 0.432405
v 0.032736 0.440376 0.432405
v 0.065659 0.368090 -0.108672
v 0.039550 0.368090 0.164869
v 0.039550 0.447190 0.164869
v 0.065659 0.473299 -0.108672
v 0.065659 0.368090 0.164869
v 0.065659 0.473299 0.164869
v 0.039550 0.447190 0.361404
v 0.039550 0.368090 0.361404
v 0.057178 0.464818 0.361404
v 0.057178 0.464818 0.432405
v 0.057178 0.350462 0.432405
v 0.057178 0.350462 0.361404
v 0.032736 0.440376 0.389384
v 0.032736 0.374904 0.389384
v 0.000000 0.368090 -0.108672
v 0.000000 0.374905 0.432405
v 0.000000 0.440376 0.432405
v 0.000000 0.447190 0.164869
v 0.000000 0.368090 0.127454
v 0.000000 0.473299 -0.108672
v 0.000000 0.473299 0.164869
v 0.000000 0.447190 0.361404
v 0.000000 0.368090 0.361404
v 0.000000 0.350462 0.432405
v 0.000000 0.464818 0.432405
v 0.000000 0.464818 0.361404
v 0.000000 0.350462 0.361404
v 0.000000 0.374904 0.389384
v 0.000000 0.440376 0.389384
v -0.032736 0.374905 0.432405
v -0.032736 0.440376 0.432405
v -0.065659 0.368090 -0.108672
v -0.039550 0.368090 0.164869
v -0.039550 0.447190 0.164869
v -0.065659 0.473299 -0.108672
v -0.065659 0.368090 0.164869
v -0.065659 0.473299 0.164869
v -0.039550 0.447190 0.361404
v -0.039550 0.368090 0.361404
v -0.057178 0.464818 0.361404
v -0.057178 0.464818 0.432405
v -0.057178 0.350462 0.432405
v -0.057178 0.350462 0.361404
v -0.032736 0.440376 0.389384
v -0.032736 0.374904 0.389384
vn -0.0000 -0.0000 1.0000
vn -0.0000 -0.0000 -1.0000
vn -1.0000 -0.0000 -0.0000
vn -0.0000 -1.0000 -0.0000
vn 1.0000 -0.0000 -0.0000
vn -0.0000 1.0000 -0.0000
vt 0.817170 0.814118
vt 0.821874 0.814118
vt 0.816680 0.775240
vt 0.816680 0.794895
vt 0.822364 0.794895
vt 0.824240 0.775240
vt 0.816680 0.794895
vt 0.824240 0.794895
vt 0.822364 0.809016
vt 0.816680 0.809016
vt 0.823630 0.809016
vt 0.823630 0.814118
vt 0.815413 0.814118
vt 0.815413 0.809016
vt 0.947011 0.939599
vt 0.821874 0.803773
vt 0.817170 0.803773
vt 0.947011 0.939599
vt 0.816680 0.775240
vt 0.817170 0.814118
vt 0.821874 0.814118
vt 0.822364 0.794895
vt 0.816680 0.792206
vt 0.824240 0.775240
vt 0.824240 0.794895
vt 0.822364 0.809016
vt 0.816680 0.809016
vt 0.815413 0.814118
vt 0.823630 0.814118
vt 0.823630 0.809016
vt 0.815413 0.809016
vt 0.817170 0.803773
vt 0.947011 0.939599
vt 0.947011 0.939599
vt 0.821874 0.803773
vt 0.817170 0.814118
vt 0.821874 0.814118
vt 0.816680 0.775240
vt 0.816680 0.794895
vt 0.822364 0.794895
vt 0.824240 0.775240
vt 0.816680 0.794895
vt 0.824240 0.794895
vt 0.822364 0.809016
vt 0.816680 0.809016
vt 0.823630 0.809016
vt 0.823630 0.814118
vt 0.815413 0.814118
vt 0.815413 0.809016
vt 0.947011 0.939599
vt 0.821874 0.803773
vt 0.817170 0.803773
vt 0.947011 0.939599
s 0
usemtl Material.001
f 2/2/1 1/1/1 13/13/1 12/12/1
f 25/27/2 10/10/2 14/14/2 29/31/2
f 20/22/1 5/5/1 8/8/1 23/25/1
f 34/38/3 38/42/3 39/43/3 37/41/3
f 19/21/1 2/2/1 12/12/1 27/29/1
f 21/23/4 4/4/4 10/10/4 25/27/4
f 4/4/5 5/5/5 9/9/5 10/10/5
f 14/14/5 11/11/5 12/12/5 13/13/5
f 29/31/4 14/14/4 13/13/4 26/28/4
f 10/10/2 9/9/2 11/11/2 14/14/2
f 1/1/3 2/2/3 15/16/3 16/17/3
f 18/20/6 1/1/6 16/17/6 30/32/6
f 16/18/1 15/15/1 31/34/1 30/33/1
f 9/9/2 24/26/2 28/30/2 11/11/2
f 1/1/1 18/20/1 26/28/1 13/13/1
f 11/11/6 28/30/6 27/29/6 12/12/6
f 5/5/6 20/22/6 24/26/6 9/9/6
f 6/6/6 22/24/6 23/25/6 8/8/6
f 2/2/4 19/21/4 31/35/4 15/16/4
f 3/3/2 17/19/2 22/24/2 6/6/2
f 8/8/1 5/5/1 4/4/1 7/7/1
f 33/37/1 43/47/1 44/48/1 32/36/1
f 25/27/2 29/31/2 45/49/2 41/45/2
f 20/22/1 23/25/1 39/43/1 36/40/1
f 6/6/5 8/8/5 7/7/5 3/3/5
f 19/21/1 27/29/1 43/47/1 33/37/1
f 21/23/4 25/27/4 41/45/4 35/39/4
f 35/39/3 41/45/3 40/44/3 36/40/3
f 45/49/3 44/48/3 43/47/3 42/46/3
f 29/31/4 26/28/4 44/48/4 45/49/4
f 41/45/2 45/49/2 42/46/2 40/44/2
f 32/36/5 47/52/5 46/51/5 33/37/5
f 18/20/6 30/32/6 47/52/6 32/36/6
f 47/53/1 30/33/1 31/34/1 46/50/1
f 40/44/2 42/46/2 28/30/2 24/26/2
f 32/36/1 44/48/1 26/28/1 18/20/1
f 42/46/6 43/47/6 27/29/6 28/30/6
f 36/40/6 40/44/6 24/26/6 20/22/6
f 37/41/6 39/43/6 23/25/6 22/24/6
f 33/37/4 46/51/4 31/35/4 19/21/4
f 34/38/2 37/41/2 22/24/2 17/19/2
f 39/43/1 38/42/1 35/39/1 36/40/1
o base
v 0.177533 0.186080 -0.174298
v 0.229896 -0.000000 -0.174298
v 0.177533 0.186081 0.158020
v 0.229896 0.000000 0.158020
v 0.144898 0.300121 -0.078472
v 0.144898 0.300121 -0.174298
v 0.307581 0.000000 -0.062251
v 0.307581 0.000000 0.050945
v 0.194384 0.000000 -0.062251
v 0.194384 0.000000 0.050945
v 0.192083 0.190313 0.050945
v 0.139705 0.190313 0.050945
v 0.192083 0.190313 -0.062251
v 0.139705 0.190313 -0.062251
v 0.000000 0.186081 0.158020
v 0.000000 0.000000 0.158020
v 0.000000 0.186080 -0.174298
v 0.000000 -0.000000 -0.174298
v 0.000000 0.300121 -0.078472
v 0.000000 0.300121 -0.174298
v 0.118056 0.000000 0.370816
v 0.118056 0.165762 0.190564
v 0.118056 0.000000 -0.045549
v 0.118056 0.165762 -0.045549
v 0.000000 0.000000 -0.045549
v 0.000000 0.165762 -0.045549
v 0.000000 0.000000 0.370816
v 0.000000 0.165762 0.190564
v 0.144567 -0.000000 -0.241749
v 0.144567 0.000000 -0.128553
v 0.000000 -0.000000 -0.241749
v 0.000000 0.000000 -0.128553
v 0.144567 0.253130 -0.076980
v 0.000000 0.253130 -0.076980
v 0.144567 0.253130 -0.190176
v 0.000000 0.253130 -0.190176
v -0.177533 0.186080 -0.174298
v -0.229896 -0.000000 -0.174298
v -0.177533 0.186081 0.158020
v -0.229896 0.000000 0.158020
v -0.144898 0.300121 -0.078472
v -0.144898 0.300121 -0.174298
v -0.307581 0.000000 -0.062251
v -0.307581 0.000000 0.050945
v -0.194384 0.000000 -0.062251
v -0.194384 0.000000 0.050945
v -0.192083 0.190313 0.050945
v -0.139705 0.190313 0.050945
v -0.192083 0.190313 -0.062251
v -0.139705 0.190313 -0.062251
v -0.118056 0.000000 0.370816
v -0.118056 0.165762 0.190564
v -0.118056 0.000000 -0.045549
v -0.118056 0.165762 -0.045549
v -0.144567 -0.000000 -0.241749
v -0.144567 0.000000 -0.128553
v -0.144567 0.253130 -0.076980
v -0.144567 0.253130 -0.190176
vn -0.0000 0.9007 0.4344
vn -0.0000 -1.0000 -0.0000
vn 0.9626 0.2709 -0.0000
vn 0.9620 0.2730 -0.0000
vn 0.9616 0.2743 -0.0000
vn -0.0000 -0.0000 -1.0000
vn 0.9614 0.2751 -0.0000
vn -0.0000 1.0000 -0.0000
vn 0.8549 0.5188 -0.0000
vn -0.0000 -0.0000 1.0000
vn 1.0000 -0.0000 -0.0000
vn -0.0000 0.7361 0.6769
vn -0.0000 -0.1996 0.9799
vn -0.0000 0.1996 -0.9799
vn -0.9626 0.2709 -0.0000
vn -0.9616 0.2743 -0.0000
vn -0.9620 0.2730 -0.0000
vn -0.9614 0.2751 -0.0000
vn -0.8549 0.5188 -0.0000
vn -1.0000 -0.0000 -0.0000
vt 0.847954 0.792830
vt 0.857769 0.757951
vt 0.847954 0.792830
vt 0.857769 0.757951
vt 0.841837 0.814205
vt 0.841837 0.814205
vt 0.872329 0.757951
vt 0.872329 0.757951
vt 0.851112 0.757951
vt 0.851112 0.757951
vt 0.850681 0.793623
vt 0.840864 0.793623
vt 0.850681 0.793623
vt 0.840864 0.793623
vt 0.814678 0.792830
vt 0.814678 0.757951
vt 0.814678 0.792830
vt 0.814678 0.757951
vt 0.814678 0.814205
vt 0.814678 0.814205
vt 0.836806 0.757952
vt 0.836806 0.789021
vt 0.836806 0.757951
vt 0.836806 0.789021
vt 0.814678 0.757951
vt 0.814678 0.789021
vt 0.814678 0.757952
vt 0.814678 0.789021
vt 0.841775 0.757951
vt 0.841775 0.757951
vt 0.814678 0.757951
vt 0.814678 0.757951
vt 0.841775 0.805397
vt 0.814678 0.805397
vt 0.841775 0.805397
vt 0.814678 0.805397
vt 0.781402 0.792830
vt 0.771587 0.757951
vt 0.781402 0.792830
vt 0.771587 0.757951
vt 0.787519 0.814205
vt 0.787519 0.814205
vt 0.757027 0.757951
vt 0.757027 0.757951
vt 0.778244 0.757951
vt 0.778244 0.757951
vt 0.778675 0.793623
vt 0.788492 0.793623
vt 0.778675 0.793623
vt 0.788492 0.793623
vt 0.792550 0.757952
vt 0.792550 0.789021
vt 0.792550 0.757951
vt 0.792550 0.789021
vt 0.787581 0.757951
vt 0.787581 0.757951
vt 0.787581 0.805397
vt 0.787581 0.805397
s 1
usemtl Material.001
f 62/68/7 50/56/7 52/58/7 66/72/7
f 65/71/8 49/55/8 51/57/8 63/69/8
f 49/55/9 48/54/10 50/56/11 51/57/9
f 65/71/12 64/70/12 48/54/12 49/55/12
f 50/56/11 48/54/10 53/59/13 52/58/13
f 54/60/8 55/61/8 57/63/8 56/62/8
f 60/66/14 61/67/14 59/65/14 58/64/14
f 54/60/12 56/62/12 61/67/12 60/66/12
f 55/61/15 54/60/15 60/66/15 58/64/15
f 57/63/16 55/61/16 58/64/16 59/65/16
f 48/54/12 64/70/12 67/73/12 53/59/12
f 53/59/14 67/73/14 66/72/14 52/58/14
f 51/57/16 50/56/16 62/68/16 63/69/16
f 72/78/12 73/79/12 71/77/12 70/76/12
f 70/76/17 71/77/17 69/75/17 68/74/17
f 72/78/8 70/76/8 68/74/8 74/80/8
f 71/77/14 73/79/14 75/81/14 69/75/14
f 68/74/18 69/75/18 75/81/18 74/80/18
f 76/82/8 77/83/8 79/85/8 78/84/8
f 82/88/14 83/89/14 81/87/14 80/86/14
f 77/83/19 80/86/19 81/87/19 79/85/19
f 78/84/20 83/89/20 82/88/20 76/82/20
f 76/82/17 82/88/17 80/86/17 77/83/17
f 62/68/7 66/72/7 88/94/7 86/92/7
f 65/71/8 63/69/8 87/93/8 85/91/8
f 85/91/21 87/93/21 86/92/22 84/90/23
f 65/71/12 85/91/12 84/90/12 64/70/12
f 86/92/22 88/94/24 89/95/24 84/90/23
f 90/96/8 92/98/8 93/99/8 91/97/8
f 96/102/14 94/100/14 95/101/14 97/103/14
f 90/96/12 96/102/12 97/103/12 92/98/12
f 91/97/25 94/100/25 96/102/25 90/96/25
f 93/99/16 95/101/16 94/100/16 91/97/16
f 84/90/12 89/95/12 67/73/12 64/70/12
f 89/95/14 88/94/14 66/72/14 67/73/14
f 87/93/16 63/69/16 62/68/16 86/92/16
f 72/78/12 100/106/12 101/107/12 73/79/12
f 100/106/26 98/104/26 99/105/26 101/107/26
f 72/78/8 74/80/8 98/104/8 100/106/8
f 101/107/14 99/105/14 75/81/14 73/79/14
f 98/104/18 74/80/18 75/81/18 99/105/18
f 102/108/8 78/84/8 79/85/8 103/109/8
f 105/111/14 104/110/14 81/87/14 83/89/14
f 103/109/19 79/85/19 81/87/19 104/110/19
f 78/84/20 102/108/20 105/111/20 83/89/20
f 102/108/26 103/109/26 104/110/26 105/111/26
o tower
v -0.097439 0.401777 0.097439
v -0.097439 0.401777 -0.097439
v 0.097439 0.401777 0.097439
v 0.097439 0.401777 -0.097439
v -0.097439 0.057294 -0.032480
v -0.097439 0.057294 0.032480
v -0.097439 0.401777 0.032480
v -0.097439 0.401777 -0.032480
v 0.097439 0.057294 0.032480
v 0.097439 0.057294 -0.032480
v 0.097439 0.401777 -0.032480
v 0.097439 0.401777 0.032480
v -0.052953 0.488174 0.032480
v -0.097439 0.443689 0.032480
v -0.097439 0.443689 -0.032480
v -0.052953 0.488174 -0.032480
v 0.052953 0.488174 -0.032480
v 0.097439 0.443689 -0.032480
v 0.097439 0.443689 0.032480
v 0.052953 0.488174 0.032480
v -0.097439 0.313869 0.097439
v -0.097439 0.313869 -0.097439
v 0.097439 0.313869 -0.097439
v 0.097439 0.313869 0.097439
v 0.097439 0.313869 -0.032480
v 0.097439 0.278499 -0.032480
v 0.097439 0.313869 0.032480
v 0.097439 0.278499 0.032480
v -0.097439 0.313869 0.032480
v -0.097439 0.278499 0.032480
v -0.097439 0.313869 -0.032480
v -0.097439 0.278499 -0.032480
v -0.054264 0.278499 0.061671
v -0.054264 0.313869 0.061671
v -0.054264 0.313869 -0.061671
v -0.054264 0.278499 -0.061671
v 0.054264 0.313869 -0.061671
v 0.054264 0.278499 -0.061671
v 0.054264 0.313869 0.061671
v 0.054264 0.278499 0.061671
v 0.054264 0.313869 -0.032480
v 0.054264 0.278499 -0.032480
v 0.054264 0.313869 0.032480
v 0.054264 0.278499 0.032480
v -0.054264 0.313869 0.032480
v -0.054264 0.278499 0.032480
v -0.054264 0.313869 -0.032480
v -0.054264 0.278499 -0.032480
v -0.044305 0.057294 0.097439
v -0.097439 0.057294 0.044305
v -0.081876 0.057294 0.081876
v -0.097439 0.057294 -0.044305
v -0.044305 0.057294 -0.097439
v -0.081876 0.057294 -0.081876
v 0.097439 0.057294 0.044305
v 0.044305 0.057294 0.097439
v 0.081876 0.057294 0.081876
v 0.044305 0.057294 -0.097439
v 0.097439 0.057294 -0.044305
v 0.081876 0.057294 -0.081876
v -0.097439 0.278499 0.044305
v -0.044305 0.278499 0.097439
v -0.056522 0.278499 0.063542
v -0.081876 0.278499 0.081876
v -0.044305 0.278499 -0.097439
v -0.097439 0.278499 -0.044305
v -0.056522 0.278499 -0.063542
v -0.081876 0.278499 -0.081876
v 0.097439 0.278499 -0.044305
v 0.044305 0.278499 -0.097439
v 0.056522 0.278499 -0.063542
v 0.081876 0.278499 -0.081876
v 0.044305 0.278499 0.097439
v 0.097439 0.278499 0.044305
v 0.056522 0.278499 0.063542
v 0.081876 0.278499 0.081876
vn -1.0000 -0.0000 -0.0000
vn -0.0000 -0.0000 -1.0000
vn 1.0000 -0.0000 -0.0000
vn -0.0000 -0.0000 1.0000
vn -0.0000 1.0000 -0.0000
vn -0.0000 -1.0000 -0.0000
vn -0.7071 0.7071 -0.0000
vn 0.7071 0.7071 -0.0000
vn -0.3827 -0.0000 0.9239
vn -0.9239 -0.0000 0.3827
vn 0.3827 -0.0000 -0.9239
vn 0.9239 -0.0000 -0.3827
vn 0.9239 -0.0000 0.3827
vn 0.3827 -0.0000 0.9239
vn -0.9239 -0.0000 -0.3827
vn -0.3827 -0.0000 -0.9239
vt 0.795940 0.823795
vt 0.795940 0.823795
vt 0.832560 0.823795
vt 0.832560 0.823795
vt 0.795940 0.759063
vt 0.795940 0.759063
vt 0.795940 0.823795
vt 0.795940 0.823795
vt 0.832560 0.759063
vt 0.832560 0.759063
vt 0.832560 0.823795
vt 0.832560 0.823795
vt 0.804299 0.840031
vt 0.795940 0.831671
vt 0.795940 0.831671
vt 0.804299 0.840031
vt 0.824200 0.840031
vt 0.832560 0.831671
vt 0.832560 0.831671
vt 0.824200 0.840031
vt 0.795940 0.807276
vt 0.795940 0.807276
vt 0.832560 0.807276
vt 0.832560 0.807276
vt 0.832560 0.807276
vt 0.832560 0.800630
vt 0.832560 0.807276
vt 0.832560 0.800630
vt 0.795940 0.807276
vt 0.795940 0.800630
vt 0.795940 0.807276
vt 0.795940 0.800630
vt 0.804053 0.800630
vt 0.804053 0.807276
vt 0.804053 0.807276
vt 0.804053 0.800630
vt 0.824447 0.807276
vt 0.824447 0.800630
vt 0.824447 0.807276
vt 0.824447 0.800630
vt 0.824447 0.807276
vt 0.824447 0.800630
vt 0.824447 0.807276
vt 0.824447 0.800630
vt 0.804053 0.807276
vt 0.804053 0.800630
vt 0.804053 0.807276
vt 0.804053 0.800630
vt 0.805924 0.759063
vt 0.795940 0.759063
vt 0.796915 0.759063
vt 0.795940 0.759063
vt 0.805924 0.759063
vt 0.796915 0.759063
vt 0.832560 0.759063
vt 0.822575 0.759063
vt 0.831585 0.759063
vt 0.822575 0.759063
vt 0.832560 0.759063
vt 0.831585 0.759063
vt 0.795940 0.800630
vt 0.795940 0.800630
vt 0.805924 0.800630
vt 0.803629 0.800630
vt 0.795940 0.800630
vt 0.805924 0.800630
vt 0.795940 0.800630
vt 0.803629 0.800630
vt 0.798864 0.800630
vt 0.795940 0.800630
vt 0.832560 0.800630
vt 0.832560 0.800630
vt 0.822575 0.800630
vt 0.824871 0.800630
vt 0.832560 0.800630
vt 0.822575 0.800630
vt 0.832560 0.800630
vt 0.824871 0.800630
vt 0.829635 0.800630
vt 0.832560 0.800630
s 0
usemtl Material.001
f 136/142/27 113/119/27 107/113/27 127/133/27
f 127/133/28 107/113/28 109/115/28 128/134/28
f 132/138/29 117/123/29 108/114/29 129/135/29
f 129/135/30 108/114/30 106/112/30 126/132/30
f 155/161/27 166/172/27 135/141/27 111/117/27
f 117/123/31 112/118/31 106/112/31 108/114/31
f 109/115/31 107/113/31 113/119/31 116/122/31
f 117/123/29 116/122/29 123/129/29 124/130/29
f 110/116/27 137/143/27 171/178/27 157/163/27
f 110/116/32 115/121/32 114/120/32 111/117/32
f 128/134/29 109/115/29 116/122/29 130/136/29
f 130/136/29 116/122/29 117/123/29 132/138/29
f 126/132/27 106/112/27 112/118/27 134/140/27
f 134/140/27 112/118/27 113/119/27 136/142/27
f 112/118/30 117/123/30 124/130/30 125/131/30 118/124/30 119/125/30
f 116/122/28 113/119/28 120/126/28 121/127/28 122/128/28 123/129/28
f 122/128/31 121/127/31 118/124/31 125/131/31
f 118/124/33 121/127/33 120/126/33 119/125/33
f 122/128/34 125/131/34 124/130/34 123/129/34
f 113/119/27 112/118/27 119/125/27 120/126/27
f 111/117/27 135/141/27 137/143/27 110/116/27
f 133/139/31 131/137/31 147/153/31 149/155/31
f 158/164/28 170/177/28 175/184/28 163/169/28
f 132/138/32 129/135/32 144/150/32 148/154/32
f 115/121/29 131/137/29 133/139/29 114/120/29
f 126/132/32 134/140/32 150/156/32 139/145/32
f 135/141/31 166/172/31 168/175/31 138/144/31 151/157/31
f 111/117/32 114/120/32 160/166/32 162/168/32 161/167/32 154/160/32 156/162/32 155/161/32
f 168/175/31 167/174/31 178/187/31 180/189/31 145/151/31 138/144/31
f 164/170/29 174/182/29 131/137/29 115/121/29
f 129/135/32 126/132/32 139/145/32 144/150/32
f 157/163/32 159/165/32 158/164/32 163/169/32 165/171/32 164/170/32 115/121/32 110/116/32
f 134/140/32 136/142/32 152/158/32 150/156/32
f 114/120/29 133/139/29 179/188/29 160/166/29
f 176/185/31 175/184/31 170/177/31 172/179/31 141/147/31 143/149/31
f 151/157/27 150/156/27 152/158/27 153/159/27
f 138/144/27 139/145/27 150/156/27 151/157/27
f 147/153/29 146/152/29 148/154/29 149/155/29
f 143/149/29 142/148/29 146/152/29 147/153/29
f 145/151/30 144/150/30 139/145/30 138/144/30
f 149/155/29 148/154/29 144/150/29 145/151/29
f 141/147/28 140/146/28 142/148/28 143/149/28
f 153/159/27 152/158/27 140/146/27 141/147/27
f 172/179/31 171/178/31 137/143/31 153/159/31 141/147/31
f 130/136/32 132/138/32 148/154/32 146/152/32
f 127/133/32 128/134/32 142/148/32 140/146/32
f 180/189/31 179/188/31 133/139/31 149/155/31 145/151/31
f 131/137/31 174/182/31 176/185/31 143/149/31 147/153/31
f 128/134/32 130/136/32 146/152/32 142/148/32
f 137/143/31 135/141/31 151/157/31 153/159/31
f 136/142/32 127/133/32 140/146/32 152/158/32
f 166/172/31 169/176/31 168/175/31
f 169/176/31 167/173/31 168/175/31
f 170/177/31 173/180/31 172/179/31
f 173/180/31 171/178/31 172/179/31
f 174/182/31 177/186/31 176/185/31
f 177/186/31 175/183/31 176/185/31
f 178/187/31 181/190/31 180/189/31
f 181/190/31 179/188/31 180/189/31
f 154/160/35 167/174/35 169/176/35 156/162/35
f 156/162/36 169/176/36 166/172/36 155/161/36
f 163/169/37 175/184/37 177/186/37 165/171/37
f 165/171/38 177/186/38 174/182/38 164/170/38
f 160/166/39 179/188/39 181/191/39 162/168/39
f 162/168/40 181/191/40 178/187/40 161/167/40
f 157/163/41 171/178/41 173/181/41 159/165/41
f 159/165/42 173/181/42 170/177/42 158/164/42
f 161/167/30 178/187/30 167/174/30 154/160/30
